<?xml version="1.0" encoding="utf-8"?>
<!-- Generator: Adobe Illustrator 21.0.1, SVG Export Plug-In . SVG Version: 6.00 Build 0)  -->
<!DOCTYPE svg PUBLIC "-//W3C//DTD SVG 1.1//EN" "http://www.w3.org/Graphics/SVG/1.1/DTD/svg11.dtd">
<svg version="1.1" xmlns="http://www.w3.org/2000/svg" xmlns:xlink="http://www.w3.org/1999/xlink" x="0px" y="0px"
	 viewBox="0 0 66.9 258.7" style="enable-background:new 0 0 66.9 258.7;" xml:space="preserve">
<style type="text/css">
	.st0{fill:#01363D;}
	.st1{fill:#03363D;}
	.st2{opacity:0.85;}
	.st3{fill:#2F68AF;}
	.st4{opacity:0.52;fill:#ED2A7B;}
	.st5{opacity:0.52;fill:#00ACED;}
	.st6{opacity:0.52;fill:#8AC43F;}
	.st7{opacity:0.52;fill:#F8EB31;}
	.st8{fill:#334443;}
	.st9{opacity:0.52;fill:#00ADEE;}
	.st10{opacity:0.52;fill:#8CC53F;}
	.st11{fill:#FFFFFF;}
	.st12{fill:#39AABC;}
	.st13{fill:none;stroke:#F3F0EE;stroke-miterlimit:10;}
	.st14{fill:none;stroke:#37B8AF;stroke-miterlimit:10;}
	.st15{fill:none;stroke:#03363D;stroke-miterlimit:10;}
	.st16{fill:none;stroke:#F7B6C0;stroke-width:2;stroke-linecap:round;stroke-linejoin:round;stroke-miterlimit:10;}
	.st17{fill:#EB4962;stroke:#F7B6C0;stroke-width:2;stroke-linecap:round;stroke-linejoin:round;stroke-miterlimit:10;}
	.st18{fill:#F7B6C0;}
	.st19{fill:none;stroke:#EB4962;stroke-width:2;stroke-linecap:round;stroke-linejoin:round;}
	.st20{fill:none;stroke:#EB4962;stroke-width:2;stroke-linecap:round;stroke-linejoin:round;stroke-dasharray:1.0609,5.3047;}
	.st21{opacity:0.45;enable-background:new    ;}
	.st22{clip-path:url(#SVGID_4_);}
	.st23{clip-path:url(#SVGID_6_);fill:none;stroke:#939393;stroke-miterlimit:10;}
	.st24{fill:#444444;}
	.st25{fill:none;stroke:#03363D;stroke-width:4;stroke-linecap:round;stroke-linejoin:round;stroke-miterlimit:10;}
	.st26{fill:#30AABC;}
	.st27{fill:#EB4962;stroke:#EB4962;stroke-miterlimit:10;}
	.st28{fill:#EB4962;}
	.st29{fill:#FFFFFF;stroke:#EB4962;stroke-width:2;stroke-linecap:round;stroke-linejoin:round;stroke-miterlimit:10;}
	.st30{fill:none;stroke:#EB4962;stroke-width:2;stroke-linecap:round;stroke-linejoin:round;stroke-miterlimit:10;}
	.st31{clip-path:url(#SVGID_8_);}
	.st32{clip-path:url(#SVGID_10_);fill:none;stroke:#939393;stroke-miterlimit:10;}
	.st33{fill:#FFFFFF;stroke:#F7B6C0;stroke-width:2;stroke-linecap:round;stroke-linejoin:round;stroke-miterlimit:10;}
	.st34{clip-path:url(#SVGID_12_);}
	.st35{clip-path:url(#SVGID_14_);}
	.st36{clip-path:url(#SVGID_16_);fill:none;stroke:#939393;stroke-miterlimit:10;}
	.st37{clip-path:url(#SVGID_18_);}
	.st38{clip-path:url(#SVGID_20_);fill:none;stroke:#939393;stroke-miterlimit:10;}
	.st39{clip-path:url(#SVGID_22_);}
	.st40{clip-path:url(#SVGID_24_);fill:none;stroke:#939393;stroke-miterlimit:10;}
	.st41{clip-path:url(#SVGID_26_);}
	.st42{clip-path:url(#SVGID_28_);fill:none;stroke:#939393;stroke-miterlimit:10;}
	.st43{fill:#ACDDE4;stroke:#FFFFFF;stroke-width:3;stroke-linecap:round;stroke-linejoin:round;stroke-miterlimit:10;}
	.st44{fill:none;stroke:#FFC7CF;stroke-width:1.5;stroke-linejoin:round;stroke-miterlimit:10;}
	.st45{opacity:0.1;fill:#83CCD7;}
	.st46{clip-path:url(#SVGID_34_);fill:#E6E6E6;}
	.st47{clip-path:url(#SVGID_34_);fill:none;stroke:#999999;stroke-miterlimit:10;}
	.st48{opacity:0.52;}
	.st49{fill:#AAAAAA;}
	.st50{fill:none;stroke:#B3B3B3;stroke-width:2;stroke-miterlimit:10;}
	.st51{fill:none;stroke:#B3B4B4;stroke-width:2;stroke-miterlimit:10;}
	.st52{fill:#B3B3B3;}
	.st53{fill:#FFFFFF;stroke:#03363D;stroke-width:3;stroke-miterlimit:10;}
	.st54{fill:#EB4962;stroke:#03363D;stroke-width:3;stroke-linecap:round;stroke-linejoin:round;stroke-miterlimit:10;}
	.st55{fill:none;stroke:#03363D;stroke-width:3;stroke-linecap:round;stroke-linejoin:round;stroke-miterlimit:10;}
	.st56{fill:none;stroke:#03363D;stroke-width:3;stroke-linejoin:round;stroke-miterlimit:10;}
	.st57{fill:none;stroke:#03363D;stroke-width:3;stroke-miterlimit:10;}
	.st58{fill:#FFFFFF;stroke:#819A9E;stroke-width:2.5;stroke-linecap:round;stroke-linejoin:round;stroke-miterlimit:10;}
	.st59{fill:none;stroke:#819A9E;stroke-width:3;stroke-linecap:round;stroke-linejoin:round;stroke-miterlimit:10;}
	.st60{fill:#FFFFFF;stroke:#819A9E;stroke-width:3;stroke-linecap:round;stroke-linejoin:round;stroke-miterlimit:10;}
	.st61{fill:none;stroke:#03363D;stroke-width:2.5;stroke-linecap:round;stroke-linejoin:round;stroke-miterlimit:10;}
	.st62{fill:none;stroke:#F3F0EE;stroke-width:3;stroke-miterlimit:10;}
	.st63{fill:#EB4962;stroke:#03363D;stroke-width:3;stroke-miterlimit:10;}
	.st64{fill:#F3F0EE;stroke:#03363D;stroke-width:3;stroke-miterlimit:10;}
	.st65{fill:#FFBE7D;stroke:#03363D;stroke-width:3;stroke-miterlimit:10;}
	.st66{fill:#FFFFFF;stroke:#03363D;stroke-width:3;stroke-linecap:round;stroke-linejoin:round;stroke-miterlimit:10;}
</style>
<g id="Layer_14">
</g>
<g id="Layer_1">
</g>
<g id="Layer_13">
</g>
<g id="illustration">
	<g>
		<line class="st53" x1="32.3" y1="0" x2="32.3" y2="138.3"/>
		<g>
			<path class="st53" d="M45.3,257.2H21.6c-2.8,0-5-2.3-5-5v-7.3c0-2.8,2.3-5,5-5h23.7c2.8,0,5,2.3,5,5v7.3
				C50.3,254.9,48.1,257.2,45.3,257.2z"/>
			<path class="st53" d="M45.3,154.6H21.6c-2.8,0-5-2.3-5-5v-7.3c0-2.8,2.3-5,5-5h23.7c2.8,0,5,2.3,5,5v7.3
				C50.3,152.3,48.1,154.6,45.3,154.6z"/>
			<path class="st53" d="M39,244.7h-11c-14.6,0-26.4-11.8-26.4-26.4v-43.7c0-14.6,11.8-26.4,26.4-26.4h11
				c14.6,0,26.4,11.8,26.4,26.4v43.7C65.4,232.8,53.6,244.7,39,244.7z"/>
			<polyline class="st53" points="2.6,167.1 12.3,167.1 54,167.1 64.4,167.1 			"/>
			<polyline class="st53" points="1.5,186.6 12.3,186.6 54,186.6 65.4,186.6 			"/>
			<polyline class="st53" points="1.5,206.1 12.3,206.1 54,206.1 65.4,206.1 			"/>
			<polyline class="st53" points="2.6,225.6 12.3,225.6 54,225.6 64.4,225.6 			"/>
			<path class="st57" d="M38.5,244.7c-14.6,0-26.4-11.8-26.4-26.4v-43.7c0-14.6,11.8-26.4,26.4-26.4"/>
			<path class="st57" d="M28.5,244.7c14.6,0,26.4-11.8,26.4-26.4v-43.7c0-14.6-11.8-26.4-26.4-26.4"/>
		</g>
	</g>
</g>
</svg>
